<svg width="22" height="15" viewBox="0 0 22 15" fill="none" xmlns="http://www.w3.org/2000/svg">
<path d="M21.8602 6.58309C21.6637 6.31423 16.9808 0 10.9999 0C5.01902 0 0.335931 6.31423 0.139606 6.58283C-0.0465353 6.83789 -0.0465353 7.18384 0.139606 7.4389C0.335931 7.70776 5.01902 14.022 10.9999 14.022C16.9808 14.022 21.6637 7.70771 21.8602 7.43912C22.0466 7.1841 22.0466 6.83789 21.8602 6.58309ZM10.9999 12.5714C6.59435 12.5714 2.77867 8.38056 1.64915 7.0105C2.77721 5.63924 6.58489 1.45054 10.9999 1.45054C15.4052 1.45054 19.2207 5.6407 20.3507 7.01149C19.2226 8.38271 15.4149 12.5714 10.9999 12.5714Z" fill="#9F9EB7"/>
<path d="M10.9996 2.65918C8.60015 2.65918 6.64795 4.61138 6.64795 7.01085C6.64795 9.41032 8.60015 11.3625 10.9996 11.3625C13.3991 11.3625 15.3513 9.41032 15.3513 7.01085C15.3513 4.61138 13.3991 2.65918 10.9996 2.65918ZM10.9996 9.91194C9.39989 9.91194 8.09854 8.61054 8.09854 7.01085C8.09854 5.41116 9.39993 4.10977 10.9996 4.10977C12.5993 4.10977 13.9007 5.41116 13.9007 7.01085C13.9007 8.61054 12.5994 9.91194 10.9996 9.91194Z" fill="#9F9EB7"/>
</svg>
