<svg width="18" height="18" viewBox="0 0 18 18" fill="none" xmlns="http://www.w3.org/2000/svg">
<path d="M17.4397 2.19043L15.8086 0.559188C15.0633 -0.186088 13.8508 -0.186053 13.1055 0.559188C12.4038 1.26094 1.68623 11.9793 0.969991 12.6956C0.893702 12.7719 0.842585 12.8733 0.824374 12.9724L0.00882121 17.3768C-0.0227842 17.5476 0.0316376 17.723 0.154438 17.8458C0.277379 17.9687 0.452809 18.023 0.623351 17.9914L5.02733 17.1758C5.12911 17.1568 5.22916 17.1052 5.30419 17.0301L17.4397 4.8937C18.1867 4.1467 18.1868 2.93754 17.4397 2.19043ZM1.1855 16.8146L1.67885 14.1503L3.8496 16.3212L1.1855 16.8146ZM4.93132 15.9114L2.08863 13.0685L12.4671 2.68927L15.3098 5.53217L4.93132 15.9114ZM16.6939 4.14793L16.0555 4.7864L13.2128 1.9435L13.8512 1.30503C14.1852 0.970972 14.7287 0.970937 15.0628 1.30503L16.6939 2.93627C17.0288 3.27114 17.0288 3.81303 16.6939 4.14793Z" fill="#F44685"/>
</svg>
