<svg width="22" height="14" viewBox="0 0 22 14" fill="none" xmlns="http://www.w3.org/2000/svg">
<path d="M20.0608 13.5301C19.5325 13.5026 19.1261 13.0515 19.1537 12.5231C19.4283 7.25624 15.3853 2.74886 10.1412 2.47543C7.86777 2.35689 5.68834 3.0398 3.91978 4.38234L4.83901 4.43027C5.36729 4.45781 5.77369 4.90895 5.74614 5.43727C5.71859 5.96558 5.26748 6.37201 4.7392 6.34446L1.59774 6.18066C1.58913 6.18021 1.58159 6.17742 1.57346 6.177C1.53714 6.17414 1.5015 6.16749 1.46541 6.16033C1.43881 6.1551 1.41214 6.15131 1.38615 6.14372C1.35494 6.13489 1.32443 6.12179 1.29388 6.10964C1.26569 6.09809 1.23695 6.08795 1.20985 6.07406C1.18415 6.06073 1.16007 6.04412 1.13546 6.02844C1.10621 6.00964 1.07741 5.99134 1.05023 5.96977C1.04332 5.96413 1.03534 5.96084 1.02846 5.95472C1.01284 5.94143 1.0012 5.92547 0.986584 5.91127C0.96237 5.88793 0.938156 5.8646 0.916485 5.83852C0.896149 5.81442 0.878735 5.78952 0.861345 5.76414C0.843956 5.73876 0.827045 5.71341 0.811644 5.6867C0.796293 5.65902 0.783385 5.63052 0.770955 5.60204C0.7585 5.57404 0.747028 5.54561 0.737519 5.51632C0.72806 5.48608 0.720994 5.45596 0.714456 5.42491C0.708322 5.39532 0.701709 5.3657 0.698496 5.3353C0.694525 5.30103 0.693905 5.26693 0.693308 5.23235C0.692896 5.21265 0.689587 5.19328 0.690635 5.17318L0.85512 2.01859C0.882667 1.49027 1.33377 1.08385 1.86206 1.11139C2.39034 1.13894 2.79673 1.59008 2.76919 2.11839L2.72951 2.87929C4.85998 1.249 7.49289 0.417943 10.241 0.561233C16.5407 0.889705 21.3974 6.30084 21.0677 12.623C21.0402 13.1513 20.5891 13.5577 20.0608 13.5301Z" fill="#191553"/>
</svg>
