<svg width="23" height="16" viewBox="0 0 23 16" fill="none" xmlns="http://www.w3.org/2000/svg">
<path d="M20.5037 2.12624C19.9774 2.17899 19.593 2.64899 19.6457 3.17536L19.7254 3.97015C17.4982 2.3894 14.7861 1.65568 12.0022 1.93467C5.72544 2.56371 1.13274 8.20033 1.76397 14.4991C1.81672 15.0254 2.28673 15.4098 2.81309 15.357C3.33945 15.3043 3.72383 14.8343 3.67108 14.3079C3.14521 9.0605 6.96833 4.36542 12.1933 3.84178C14.4852 3.6121 16.7197 4.2078 18.5631 5.49521L17.6891 5.58279C17.1628 5.63554 16.7784 6.10555 16.8311 6.63191C16.8839 7.15828 17.3539 7.54266 17.8803 7.48991L21.0098 7.17627C21.5362 7.12352 21.9206 6.65352 21.8678 6.12716L21.5529 2.98423C21.5001 2.45787 21.0301 2.07349 20.5037 2.12624Z" fill="#191553"/>
</svg>
