<svg width="194" height="47" viewBox="0 0 194 47" fill="none" xmlns="http://www.w3.org/2000/svg">
<path d="M11.912 37.552H26.248V46H0.968V1.072H11.912V37.552ZM59.116 46.448C54.892 46.448 51.0093 45.4667 47.468 43.504C43.9693 41.5413 41.1747 38.8107 39.084 35.312C37.036 31.7707 36.012 27.8027 36.012 23.408C36.012 19.0133 37.036 15.0667 39.084 11.568C41.1747 8.06933 43.9693 5.33867 47.468 3.376C51.0093 1.41333 54.892 0.431999 59.116 0.431999C63.34 0.431999 67.2013 1.41333 70.7 3.376C74.2413 5.33867 77.0147 8.06933 79.02 11.568C81.068 15.0667 82.092 19.0133 82.092 23.408C82.092 27.8027 81.068 31.7707 79.02 35.312C76.972 38.8107 74.1987 41.5413 70.7 43.504C67.2013 45.4667 63.34 46.448 59.116 46.448ZM59.116 36.464C62.7 36.464 65.5587 35.2693 67.692 32.88C69.868 30.4907 70.956 27.3333 70.956 23.408C70.956 19.44 69.868 16.2827 67.692 13.936C65.5587 11.5467 62.7 10.352 59.116 10.352C55.4893 10.352 52.588 11.5253 50.412 13.872C48.2787 16.2187 47.212 19.3973 47.212 23.408C47.212 27.376 48.2787 30.5547 50.412 32.944C52.588 35.2907 55.4893 36.464 59.116 36.464ZM124.405 15.28C123.594 13.7867 122.421 12.656 120.885 11.888C119.391 11.0773 117.621 10.672 115.573 10.672C112.031 10.672 109.194 11.8453 107.061 14.192C104.927 16.496 103.861 19.5893 103.861 23.472C103.861 27.6107 104.97 30.8533 107.189 33.2C109.45 35.504 112.543 36.656 116.469 36.656C119.157 36.656 121.418 35.9733 123.253 34.608C125.13 33.2427 126.495 31.28 127.349 28.72H113.461V20.656H137.269V30.832C136.458 33.5627 135.071 36.1013 133.109 38.448C131.189 40.7947 128.735 42.6933 125.749 44.144C122.762 45.5947 119.391 46.32 115.637 46.32C111.199 46.32 107.231 45.36 103.733 43.44C100.277 41.4773 97.5672 38.768 95.6045 35.312C93.6845 31.856 92.7245 27.9093 92.7245 23.472C92.7245 19.0347 93.6845 15.088 95.6045 11.632C97.5672 8.13333 100.277 5.424 103.733 3.504C107.189 1.54133 111.135 0.559998 115.573 0.559998C120.949 0.559998 125.471 1.86133 129.141 4.464C132.853 7.06667 135.306 10.672 136.501 15.28H124.405ZM170.978 46.448C166.754 46.448 162.872 45.4667 159.33 43.504C155.832 41.5413 153.037 38.8107 150.946 35.312C148.898 31.7707 147.874 27.8027 147.874 23.408C147.874 19.0133 148.898 15.0667 150.946 11.568C153.037 8.06933 155.832 5.33867 159.33 3.376C162.872 1.41333 166.754 0.431999 170.978 0.431999C175.202 0.431999 179.064 1.41333 182.562 3.376C186.104 5.33867 188.877 8.06933 190.882 11.568C192.93 15.0667 193.954 19.0133 193.954 23.408C193.954 27.8027 192.93 31.7707 190.882 35.312C188.834 38.8107 186.061 41.5413 182.562 43.504C179.064 45.4667 175.202 46.448 170.978 46.448ZM170.978 36.464C174.562 36.464 177.421 35.2693 179.554 32.88C181.73 30.4907 182.819 27.3333 182.819 23.408C182.819 19.44 181.73 16.2827 179.554 13.936C177.421 11.5467 174.562 10.352 170.978 10.352C167.352 10.352 164.45 11.5253 162.274 13.872C160.141 16.2187 159.074 19.3973 159.074 23.408C159.074 27.376 160.141 30.5547 162.274 32.944C164.45 35.2907 167.352 36.464 170.978 36.464Z" fill="#31055A"/>
</svg>
